<?xml version="1.0" encoding="UTF-8"?>
<!DOCTYPE svg PUBLIC "-//W3C//DTD SVG 1.1//EN" "http://www.w3.org/Graphics/SVG/1.1/DTD/svg11.dtd">
<!-- Creator: CorelDRAW 2019 (64-Bit) -->
<svg xmlns="http://www.w3.org/2000/svg" xml:space="preserve" width="680mm" height="340mm" version="1.1" style="shape-rendering:geometricPrecision; text-rendering:geometricPrecision; image-rendering:optimizeQuality; fill-rule:evenodd; clip-rule:evenodd"
viewBox="0 0 16743.79 8371.89"
 xmlns:xlink="http://www.w3.org/1999/xlink"
 xmlns:xodm="http://www.corel.com/coreldraw/odm/2003">
 <defs>
  <style type="text/css">
   <![CDATA[
    .fil2 {fill:#00BBF0}
    .fil0 {fill:white}
    .fil1 {fill:#00BBF0;fill-rule:nonzero}
    .fil3 {fill:#00204A;fill-opacity:0.149020}
   ]]>
  </style>
 </defs>
 <g id="Layer_x0020_1">
  <metadata id="CorelCorpID_0Corel-Layer"/>
  <polygon class="fil0" points="-0,0 16743.79,0 16743.79,8371.89 -0,8371.89 "/>
  <g id="_1250609116960">
   <g>
    <path class="fil1" d="M13720.77 4782.2c-120.12,0 -227.96,-25.39 -323.52,-76.17 -95.55,-50.78 -170.63,-121.49 -225.23,-212.13 -54.6,-90.64 -81.9,-193.29 -81.9,-307.96 0,-114.67 27.3,-217.32 81.9,-307.96 54.6,-90.64 129.68,-161.35 225.23,-212.13 95.56,-50.78 203.39,-76.17 323.52,-76.17 104.84,0 199.3,18.56 283.39,55.7 32.5,14.35 62.87,31.15 91.12,50.38 34.2,23.29 53.9,57.62 56.74,98.9 2.85,41.28 -11.95,77.99 -42.64,105.75l-13.04 11.8c-46.26,41.86 -113.74,45.49 -164.23,8.83 -57.59,-41.81 -122.58,-62.72 -194.96,-62.72 -62.25,0 -117.67,13.65 -166.26,40.95 -48.6,27.3 -86.27,65.8 -113.03,115.49 -26.76,49.69 -40.14,106.75 -40.14,171.18 0,64.43 13.38,121.49 40.14,171.17 26.75,49.69 64.43,88.19 113.03,115.49 48.59,27.3 104.02,40.95 166.26,40.95 72.38,0 137.37,-20.91 194.96,-62.72 50.49,-36.65 117.96,-33.02 164.22,8.83l13.04 11.8c30.68,27.76 45.48,64.47 42.64,105.75 -2.84,41.28 -22.54,75.61 -56.73,98.9 -28.26,19.24 -58.64,36.04 -91.13,50.38 -84.09,37.12 -178.55,55.7 -283.39,55.7z"/>
    <path class="fil1" d="M12746.7 3612.63l63.32 0c71.88,0 130.51,58.63 130.51,130.5l0 885.63c0,71.88 -58.63,130.51 -130.51,130.51l-63.32 0c-71.88,0 -130.51,-58.63 -130.51,-130.51l0 -885.63c0,-71.88 58.63,-130.5 130.51,-130.5z"/>
    <path class="fil1" d="M11704.72 3869.8l-143.38 0c-67.09,0 -121.81,-54.72 -121.81,-121.8l0 -13.56c0,-67.09 54.72,-121.8 121.81,-121.8l783.45 0c67.09,0 121.8,54.72 121.8,121.8l0 13.56c0,67.09 -54.72,121.8 -121.8,121.8l-141.74 0c-47.92,0 -87,39.08 -87,87l0 680.66c0,67.09 -54.72,121.8 -121.8,121.8l-80.73 0c-67.09,0 -121.8,-54.72 -121.8,-121.8l0 -680.66c0,-47.92 -39.08,-87 -87,-87z"/>
    <path class="fil1" d="M11289.94 4595.65l0 76.62c0,47.92 -39.08,87 -87,87l-746.58 0c-47.92,0 -87,-39.08 -87,-87l0 -972.63c0,-47.92 39.08,-87 87,-87l725.29 0c47.92,0 87,39.08 87,87l0 76.62c0,47.92 -39.08,87 -87,87l-404.23 0c-47.92,0 -87,39.08 -87,87l0 19.28c0,47.92 39.08,87 87,87l335.43 0c47.92,0 87,39.08 87,87l0 68.43c0,47.92 -39.08,87 -87,87l-335.43 0c-47.92,0 -87,39.08 -87,87l0 35.67c0,47.92 39.08,87 87,87l425.52 0c47.92,0 87,39.08 87,87z"/>
    <path class="fil1" d="M7087.75 3612.63l72.04 0c69.48,0 126.15,56.67 126.15,126.15l0 676.31c0,47.92 39.08,87 87,87l333.96 0c69.48,0 126.15,56.67 126.15,126.15l0 4.88c0,69.48 -56.67,126.15 -126.15,126.15l-619.15 0c-69.48,0 -126.15,-56.67 -126.15,-126.15l0 -894.34c0,-69.48 56.67,-126.15 126.15,-126.15z"/>
    <path class="fil1" d="M6366.04 4536.49l-308.88 0c-54.29,0 -100.63,31.24 -120.99,81.58l-13.11 32.43c-27.14,67.11 -88.92,108.77 -161.32,108.77l-13.3 0c-45.45,0 -84.52,-21.17 -109.34,-59.25 -24.82,-38.08 -28.41,-82.37 -10.05,-123.95l379.49 -859.69c28.46,-64.47 88.71,-103.74 159.19,-103.74l92.78 0c70.4,0 130.6,39.17 159.1,103.55l380.75 859.74c18.41,41.58 14.86,85.92 -9.95,124.03 -24.81,38.11 -63.9,59.32 -109.38,59.32l-19.59 0c-72.39,0 -134.17,-41.66 -161.32,-108.77l-13.11 -32.43c-20.36,-50.33 -66.69,-81.58 -120.99,-81.58zm-31.01 -298.88l-83.06 -206.74c-6.76,-16.83 -22.23,-27.28 -40.37,-27.28 -18.13,0 -33.6,10.46 -40.36,27.28l-83.07 206.74c-5.55,13.82 -4.01,28.24 4.32,40.58 8.34,12.34 21.15,19.14 36.04,19.14l166.13 0c14.89,0 27.7,-6.8 36.04,-19.14 8.34,-12.34 9.88,-26.76 4.32,-40.58z"/>
    <path class="fil1" d="M8903.23 4595.65l0 76.62c0,47.92 -39.08,87 -87,87l-746.58 0c-47.92,0 -87,-39.08 -87,-87l0 -972.63c0,-47.92 39.08,-87 87,-87l725.29 0c47.92,0 87,39.08 87,87l0 76.62c0,47.92 -39.08,87 -87,87l-404.23 0c-47.92,0 -87,39.08 -87,87l0 19.28c0,47.92 39.08,87 87,87l335.43 0c47.92,0 87,39.08 87,87l0 68.43c0,47.92 -39.08,87 -87,87l-335.43 0c-47.92,0 -87,39.08 -87,87l0 35.67c0,47.92 39.08,87 87,87l425.52 0c47.92,0 87,39.08 87,87z"/>
    <path class="fil1" d="M10208.76 3794.55l-356.96 832.89c-35.03,81.73 -111,131.83 -199.92,131.83l-32.38 0c-89.01,0 -165.06,-50.21 -200.02,-132.07l-355.73 -832.8c-17.74,-41.54 -13.78,-85.47 11.11,-123.17 24.89,-37.7 63.73,-58.6 108.91,-58.6l36.88 0c71.75,0 133.02,40.85 160.62,107.08l226.87 544.5c6.88,16.5 22.11,26.7 39.99,26.77 17.88,0.07 33.2,-10.01 40.2,-26.47l232.29 -545.99c27.91,-65.6 88.82,-105.89 160.12,-105.89l8.07 0c45.2,0 84.07,20.92 108.95,58.67 24.88,37.74 28.81,81.7 11,123.25z"/>
   </g>
   <g>
    <path class="fil2" d="M3230.41 3173.46c125.47,0 242.87,35.2 343.21,96.39l567.07 333.4c321.82,187.37 434.1,605.31 248.49,932.7 -62.74,110.65 -151.36,196.56 -253.57,254.46l-561.92 330.35c-100.36,61.22 -217.78,96.43 -343.28,96.43 -290.73,0 -538.1,-188.85 -630.37,-452.64 271.12,-11.92 521.29,-35.87 743.62,-69.05 68.75,-10.27 126.37,-57.92 126.37,-128.71l0 -179.38c0,-35.49 -21.94,-65.59 -55.3,-75.85 -78.44,-24.14 -135.56,-98.33 -135.56,-186.1 0,-87.76 57.12,-161.95 135.57,-186.1 33.35,-10.26 55.3,-40.36 55.3,-75.85l0 -179.35c0,-70.79 -57.8,-140.18 -126.37,-128.7 -245.98,41.09 -493.78,61.22 -743.39,70.53l-0.09 0.24c92.19,-263.87 338.78,-452.77 630.23,-452.77z"/>
    <path class="fil3" d="M2600.04 4764.55c0,0 0,0 0,0 271.12,-11.92 521.29,-35.87 743.62,-69.05 11.56,-1.73 22.8,-4.52 33.51,-8.28l0 54.03c0,70.78 -59.24,147.04 -126.35,128.7 -226.99,-62.02 -437.61,-94.58 -650.78,-105.39zm777.13 -808.94l0 84.62c0,34.81 -21.01,64.38 -53.47,75.27 -16.12,5.4 -31.5,12.41 -44.31,19.43 -0.15,-3.14 -0.23,-6.29 -0.23,-9.47 0,-73.02 39.54,-136.63 98.01,-169.85z"/>
   </g>
  </g>
 </g>
</svg>
