<?xml version="1.0" encoding="UTF-8"?>
<!DOCTYPE svg PUBLIC "-//W3C//DTD SVG 1.1//EN" "http://www.w3.org/Graphics/SVG/1.1/DTD/svg11.dtd">
<!-- Creator: CorelDRAW 2019 (64-Bit) -->
<svg xmlns="http://www.w3.org/2000/svg" xml:space="preserve" width="469.164mm" height="83mm" version="1.1" style="shape-rendering:geometricPrecision; text-rendering:geometricPrecision; image-rendering:optimizeQuality; fill-rule:evenodd; clip-rule:evenodd"
viewBox="0 0 7404.28 1309.89"
 xmlns:xlink="http://www.w3.org/1999/xlink"
 xmlns:xodm="http://www.corel.com/coreldraw/odm/2003">
 <defs>
  <style type="text/css">
   <![CDATA[
    .fil1 {fill:#00BBF0}
    .fil0 {fill:#00BBF0;fill-rule:nonzero}
    .fil2 {fill:#00204A;fill-opacity:0.149020}
   ]]>
  </style>
 </defs>
 <g id="Layer_x0020_1">
  <metadata id="CorelCorpID_0Corel-Layer"/>
  <g id="_1250609113920">
   <g>
    <path class="fil0" d="M7127.65 1031.1c-76.99,0 -146.11,-16.27 -207.35,-48.82 -61.24,-32.55 -109.36,-77.87 -144.36,-135.96 -34.99,-58.09 -52.49,-123.89 -52.49,-197.38 0,-73.49 17.5,-139.29 52.49,-197.38 35,-58.09 83.12,-103.41 144.36,-135.96 61.25,-32.55 130.36,-48.82 207.35,-48.82 67.19,0 127.74,11.9 181.63,35.7 20.83,9.19 40.3,19.96 58.4,32.29 21.92,14.93 34.54,36.93 36.37,63.39 1.82,26.46 -7.66,49.99 -27.33,67.78l-8.36 7.56c-29.65,26.83 -72.9,29.16 -105.26,5.66 -36.91,-26.79 -78.57,-40.2 -124.96,-40.2 -39.9,0 -75.42,8.75 -106.56,26.25 -31.15,17.5 -55.29,42.17 -72.44,74.02 -17.15,31.85 -25.72,68.42 -25.72,109.71 0,41.29 8.57,77.86 25.72,109.71 17.15,31.85 41.29,56.52 72.44,74.02 31.15,17.5 66.67,26.25 106.56,26.25 46.39,0 88.04,-13.4 124.96,-40.2 32.36,-23.49 75.61,-21.17 105.26,5.66l8.36 7.56c19.66,17.79 29.15,41.32 27.33,67.78 -1.82,26.46 -14.45,48.46 -36.36,63.39 -18.11,12.33 -37.58,23.1 -58.41,32.29 -53.9,23.79 -114.44,35.7 -181.63,35.7z"/>
    <path class="fil0" d="M6503.34 281.48l40.59 0c46.07,0 83.65,37.58 83.65,83.64l0 567.63c0,46.07 -37.58,83.65 -83.65,83.65l-40.59 0c-46.07,0 -83.65,-37.58 -83.65,-83.65l0 -567.63c0,-46.07 37.58,-83.64 83.65,-83.64z"/>
    <path class="fil0" d="M5835.5 446.31l-91.89 0c-43,0 -78.07,-35.07 -78.07,-78.07l0 -8.69c0,-43 35.07,-78.07 78.07,-78.07l502.14 0c43,0 78.07,35.07 78.07,78.07l0 8.69c0,43 -35.07,78.07 -78.07,78.07l-90.84 0c-30.71,0 -55.76,25.05 -55.76,55.76l0 436.26c0,43 -35.07,78.07 -78.07,78.07l-51.74 0c-43,0 -78.07,-35.07 -78.07,-78.07l0 -436.26c0,-30.71 -25.05,-55.76 -55.76,-55.76z"/>
    <path class="fil0" d="M5569.65 911.53l0 49.11c0,30.71 -25.05,55.76 -55.76,55.76l-478.51 0c-30.71,0 -55.76,-25.05 -55.76,-55.76l0 -623.39c0,-30.71 25.05,-55.76 55.76,-55.76l464.86 0c30.71,0 55.76,25.05 55.76,55.76l0 49.11c0,30.71 -25.05,55.76 -55.76,55.76l-259.08 0c-30.71,0 -55.76,25.05 -55.76,55.76l0 12.36c0,30.71 25.05,55.76 55.76,55.76l214.99 0c30.71,0 55.76,25.05 55.76,55.76l0 43.86c0,30.71 -25.05,55.76 -55.76,55.76l-214.99 0c-30.71,0 -55.76,25.05 -55.76,55.76l0 22.86c0,30.71 25.05,55.76 55.76,55.76l272.73 0c30.71,0 55.76,25.05 55.76,55.76z"/>
    <path class="fil0" d="M2876.32 281.48l46.17 0c44.53,0 80.85,36.32 80.85,80.85l0 433.47c0,30.71 25.05,55.76 55.76,55.76l214.04 0c44.53,0 80.85,36.32 80.85,80.85l0 3.13c0,44.53 -36.32,80.85 -80.85,80.85l-396.83 0c-44.53,0 -80.85,-36.32 -80.85,-80.85l0 -573.21c0,-44.53 36.32,-80.85 80.85,-80.85z"/>
    <path class="fil0" d="M2413.76 873.61l-197.97 0c-34.8,0 -64.5,20.03 -77.54,52.29l-8.4 20.78c-17.39,43.02 -56.99,69.71 -103.39,69.71l-8.52 0c-29.13,0 -54.17,-13.57 -70.08,-37.98 -15.91,-24.41 -18.21,-52.8 -6.44,-79.45l243.23 -551.01c18.24,-41.32 56.86,-66.49 102.03,-66.49l59.46 0c45.12,0 83.7,25.11 101.97,66.37l244.03 551.04c11.8,26.65 9.52,55.07 -6.37,79.5 -15.9,24.43 -40.96,38.02 -70.1,38.02l-12.56 0c-46.4,0 -86,-26.7 -103.39,-69.71l-8.4 -20.78c-13.05,-32.26 -42.75,-52.29 -77.55,-52.29zm-19.87 -191.56l-53.24 -132.51c-4.33,-10.79 -14.25,-17.49 -25.87,-17.49 -11.62,0 -21.54,6.7 -25.87,17.49l-53.24 132.51c-3.56,8.86 -2.57,18.1 2.77,26.01 5.35,7.91 13.55,12.27 23.1,12.27l106.48 0c9.55,0 17.76,-4.36 23.1,-12.27 5.35,-7.91 6.33,-17.15 2.77,-26.01z"/>
    <path class="fil0" d="M4039.92 911.53l0 49.11c0,30.71 -25.05,55.76 -55.76,55.76l-478.51 0c-30.71,0 -55.76,-25.05 -55.76,-55.76l0 -623.39c0,-30.71 25.05,-55.76 55.76,-55.76l464.86 0c30.71,0 55.76,25.05 55.76,55.76l0 49.11c0,30.71 -25.05,55.76 -55.76,55.76l-259.08 0c-30.71,0 -55.76,25.05 -55.76,55.76l0 12.36c0,30.71 25.05,55.76 55.76,55.76l214.99 0c30.71,0 55.76,25.05 55.76,55.76l0 43.86c0,30.71 -25.05,55.76 -55.76,55.76l-214.99 0c-30.71,0 -55.76,25.05 -55.76,55.76l0 22.86c0,30.71 25.05,55.76 55.76,55.76l272.73 0c30.71,0 55.76,25.05 55.76,55.76z"/>
    <path class="fil0" d="M4876.69 398.08l-228.78 533.83c-22.45,52.38 -71.15,84.49 -128.14,84.49l-20.75 0c-57.05,0 -105.79,-32.18 -128.2,-84.65l-228 -533.77c-11.37,-26.63 -8.83,-54.78 7.12,-78.94 15.95,-24.16 40.85,-37.56 69.8,-37.56l23.64 0c45.99,0 85.26,26.18 102.95,68.63l145.41 348.99c4.41,10.58 14.17,17.11 25.63,17.16 11.46,0.04 21.28,-6.42 25.76,-16.97l148.88 -349.95c17.89,-42.05 56.93,-67.87 102.62,-67.87l5.17 0c28.97,0 53.88,13.41 69.83,37.6 15.95,24.19 18.46,52.36 7.05,78.99z"/>
   </g>
   <g>
    <path class="fil1" d="M404.03 0c80.42,0 155.66,22.56 219.98,61.78l363.45 213.68c206.26,120.09 278.23,387.97 159.26,597.8 -40.21,70.92 -97.01,125.98 -162.52,163.09l-360.15 211.74c-64.32,39.24 -139.58,61.81 -220.02,61.81 -186.34,0 -344.89,-121.04 -404.03,-290.11 173.77,-7.64 334.11,-22.99 476.61,-44.26 44.07,-6.58 80.99,-37.12 80.99,-82.49l0 -114.97c0,-22.75 -14.06,-42.04 -35.44,-48.62 -50.27,-15.47 -86.89,-63.02 -86.89,-119.28 0,-56.25 36.61,-103.8 86.89,-119.28 21.38,-6.58 35.44,-25.87 35.44,-48.62l0 -114.95c0,-45.37 -37.04,-89.85 -80.99,-82.49 -157.65,26.33 -316.48,39.24 -476.46,45.21l-0.06 0.16c59.09,-169.12 217.13,-290.2 403.93,-290.2z"/>
    <path class="fil2" d="M-0 1019.78c0,0 0,0 0,0 173.77,-7.64 334.11,-22.99 476.61,-44.26 7.41,-1.11 14.61,-2.89 21.48,-5.31l0 34.63c0,45.36 -37.97,94.24 -80.98,82.49 -145.49,-39.75 -280.48,-60.62 -417.11,-67.55zm498.09 -518.47l0 54.24c0,22.31 -13.47,41.26 -34.27,48.25 -10.33,3.46 -20.19,7.96 -28.4,12.45 -0.09,-2.01 -0.15,-4.03 -0.15,-6.07 0,-46.8 25.35,-87.57 62.82,-108.86z"/>
   </g>
  </g>
 </g>
</svg>
