<?xml version="1.0" encoding="UTF-8"?>
<!DOCTYPE svg PUBLIC "-//W3C//DTD SVG 1.1//EN" "http://www.w3.org/Graphics/SVG/1.1/DTD/svg11.dtd">
<!-- Creator: CorelDRAW 2019 (64-Bit) -->
<svg xmlns="http://www.w3.org/2000/svg" xml:space="preserve" width="340mm" height="340mm" version="1.1" style="shape-rendering:geometricPrecision; text-rendering:geometricPrecision; image-rendering:optimizeQuality; fill-rule:evenodd; clip-rule:evenodd"
viewBox="0 0 115456.6 115456.6"
 xmlns:xlink="http://www.w3.org/1999/xlink"
 xmlns:xodm="http://www.corel.com/coreldraw/odm/2003">
 <defs>
  <style type="text/css">
   <![CDATA[
    .fil0 {fill:none}
    .fil1 {fill:#00BBF0}
    .fil2 {fill:#00204A;fill-opacity:0.149020}
   ]]>
  </style>
 </defs>
 <g id="Layer_x0020_1">
  <metadata id="CorelCorpID_0Corel-Layer"/>
  <rect class="fil0" x="-0.19" y="-0.19" width="115456.61" height="115456.61"/>
  <g id="_1250620371072">
   <path class="fil1" d="M51031.68 35825.5c2719.21,0 5263.39,754.44 7437.99,2066.06l12289.17 7146.08c6974.22,4016.19 9407.71,12974.47 5385.07,19991.55 -1359.54,2371.65 -3280.16,4213.22 -5495.22,5454.1l-12177.65 7080.85c-2174.86,1312.2 -4719.56,2066.94 -7439.34,2066.94 -6300.5,0 -11661.52,-4047.84 -13661.1,-9701.89 5875.48,-255.43 11297.19,-768.84 16115.33,-1480.05 1490,-220.01 2738.63,-1241.46 2738.63,-2758.7l0 -3844.77c0,-760.76 -475.55,-1405.85 -1198.47,-1625.87 -1699.89,-517.48 -2937.79,-2107.56 -2937.79,-3988.86 0,-1881.03 1237.9,-3471.27 2937.9,-3988.86 722.83,-219.98 1198.37,-865.11 1198.37,-1625.87l0 -3844.3c0,-1517.3 -1252.57,-3004.66 -2738.63,-2758.67 -5330.67,880.66 -10700.96,1312.2 -16110.41,1511.77l-1.83 5.26c1997.84,-5655.91 7341.85,-9704.81 13658.01,-9704.81z"/>
   <path class="fil2" d="M37370.59 69929.21c0,0 0,0 0,0 5875.48,-255.43 11297.19,-768.84 16115.33,-1480.05 250.57,-37.01 494.09,-96.78 726.29,-177.57l0 1158.03c0,1517.03 -1283.67,3151.66 -2738.22,2758.6 -4919.3,-1329.28 -9483.67,-2027.15 -14103.4,-2259.01zm16841.62 -17338.9l0 1813.76c0,746.05 -455.34,1379.98 -1158.74,1613.4 -349.43,115.86 -682.62,266.06 -960.16,416.46 -3.19,-67.27 -5.03,-134.91 -5.03,-202.97 0,-1565.01 856.96,-2928.45 2123.93,-3640.65z"/>
  </g>
 </g>
</svg>
