<?xml version="1.0" encoding="UTF-8"?>
<!DOCTYPE svg PUBLIC "-//W3C//DTD SVG 1.1//EN" "http://www.w3.org/Graphics/SVG/1.1/DTD/svg11.dtd">
<!-- Creator: CorelDRAW 2019 (64-Bit) -->
<svg xmlns="http://www.w3.org/2000/svg" xml:space="preserve" width="119.9mm" height="129mm" version="1.1" style="shape-rendering:geometricPrecision; text-rendering:geometricPrecision; image-rendering:optimizeQuality; fill-rule:evenodd; clip-rule:evenodd"
viewBox="0 0 4489.37 4830.09"
 xmlns:xlink="http://www.w3.org/1999/xlink"
 xmlns:xodm="http://www.corel.com/coreldraw/odm/2003">
 <defs>
  <style type="text/css">
   <![CDATA[
    .fil0 {fill:#00BBF0}
    .fil1 {fill:#00204A;fill-opacity:0.149020}
   ]]>
  </style>
 </defs>
 <g id="Layer_x0020_1">
  <metadata id="CorelCorpID_0Corel-Layer"/>
  <g id="_1250688281280">
   <path class="fil0" d="M1506.3 0c299.82,0 580.35,83.19 820.13,227.81l1355.03 787.94c768.99,442.83 1037.31,1430.59 593.77,2204.31 -149.9,261.5 -361.68,464.56 -605.91,601.38l-1342.73 780.75c-239.8,144.69 -520.39,227.91 -820.28,227.91 -694.71,0 -1285.82,-446.32 -1506.3,-1069.75 647.84,-28.16 1245.65,-84.77 1776.91,-163.19 164.29,-24.26 301.97,-136.89 301.97,-304.18l0 -423.93c0,-83.88 -52.43,-155.01 -132.15,-179.27 -187.43,-57.06 -323.93,-232.38 -323.93,-439.82 0,-207.41 136.49,-382.75 323.94,-439.82 79.7,-24.26 132.13,-95.39 132.13,-179.27l0 -423.88c0,-167.3 -138.11,-331.3 -301.97,-304.18 -587.77,97.1 -1179.91,144.69 -1776.36,166.69l-0.2 0.58c220.29,-623.63 809.53,-1070.07 1505.96,-1070.07z"/>
   <path class="fil1" d="M-0 3760.34c0,0 0,0 0,0 647.84,-28.16 1245.65,-84.77 1776.91,-163.19 27.63,-4.08 54.48,-10.67 80.08,-19.58l0 127.69c0,167.27 -141.54,347.51 -301.92,304.17 -542.41,-146.57 -1045.69,-223.52 -1555.07,-249.08zm1856.99 -1911.82l0 199.99c0,82.26 -50.21,152.16 -127.77,177.9 -38.53,12.78 -75.27,29.34 -105.87,45.92 -0.35,-7.42 -0.55,-14.88 -0.55,-22.38 0,-172.56 94.49,-322.9 234.19,-401.43z"/>
  </g>
 </g>
</svg>
