<?xml version="1.0" encoding="UTF-8"?>
<!DOCTYPE svg PUBLIC "-//W3C//DTD SVG 1.1//EN" "http://www.w3.org/Graphics/SVG/1.1/DTD/svg11.dtd">
<!-- Creator: CorelDRAW 2019 (64-Bit) -->
<svg xmlns="http://www.w3.org/2000/svg" xml:space="preserve" width="196.197mm" height="138.464mm" version="1.1" style="shape-rendering:geometricPrecision; text-rendering:geometricPrecision; image-rendering:optimizeQuality; fill-rule:evenodd; clip-rule:evenodd"
viewBox="0 0 6046.63 4267.36"
 xmlns:xlink="http://www.w3.org/1999/xlink"
 xmlns:xodm="http://www.corel.com/coreldraw/odm/2003">
 <defs>
  <style type="text/css">
   <![CDATA[
    .fil1 {fill:white}
    .fil0 {fill:white;fill-rule:nonzero}
    .fil2 {fill:#00204A;fill-opacity:0.149020}
   ]]>
  </style>
 </defs>
 <g id="Layer_x0020_1">
  <metadata id="CorelCorpID_0Corel-Layer"/>
  <g id="_1250688310480">
   <g>
    <path class="fil0" d="M5740.86 4267.36c-85.1,0 -161.5,-17.99 -229.2,-53.96 -67.69,-35.98 -120.89,-86.07 -159.57,-150.28 -38.68,-64.21 -58.02,-136.94 -58.02,-218.18 0,-81.24 19.34,-153.96 58.02,-218.18 38.68,-64.21 91.88,-114.31 159.57,-150.28 67.7,-35.98 144.1,-53.96 229.2,-53.96 74.27,0 141.2,13.15 200.77,39.46 23.02,10.16 44.54,22.07 64.56,35.69 24.23,16.5 38.18,40.82 40.2,70.06 2.02,29.24 -8.47,55.25 -30.21,74.92l-9.24 8.36c-32.78,29.65 -80.58,32.23 -116.35,6.26 -40.8,-29.62 -86.85,-44.43 -138.12,-44.43 -44.1,0 -83.36,9.67 -117.79,29.01 -34.43,19.34 -61.12,46.61 -80.07,81.82 -18.96,35.2 -28.43,75.63 -28.43,121.27 0,45.65 9.48,86.07 28.43,121.27 18.95,35.2 45.65,62.48 80.07,81.82 34.43,19.34 73.69,29.01 117.79,29.01 51.28,0 97.32,-14.81 138.13,-44.43 35.77,-25.97 83.57,-23.39 116.35,6.26l9.24 8.36c21.74,19.67 32.22,45.67 30.21,74.92 -2.01,29.24 -15.97,53.57 -40.19,70.06 -20.02,13.63 -41.54,25.53 -64.56,35.69 -59.57,26.3 -126.49,39.46 -200.77,39.46z"/>
    <path class="fil0" d="M5050.77 3438.77l44.86 0c50.92,0 92.46,41.54 92.46,92.46l0 627.44c0,50.92 -41.54,92.46 -92.46,92.46l-44.86 0c-50.92,0 -92.46,-41.54 -92.46,-92.46l0 -627.44c0,-50.92 41.54,-92.46 92.46,-92.46z"/>
    <path class="fil0" d="M4312.56 3620.96l-101.58 0c-47.53,0 -86.29,-38.76 -86.29,-86.29l0 -9.61c0,-47.53 38.76,-86.29 86.29,-86.29l555.05 0c47.53,0 86.29,38.76 86.29,86.29l0 9.61c0,47.53 -38.76,86.29 -86.29,86.29l-100.42 0c-33.95,0 -61.64,27.69 -61.64,61.64l0 482.22c0,47.53 -38.76,86.29 -86.29,86.29l-57.19 0c-47.53,0 -86.29,-38.76 -86.29,-86.29l0 -482.22c0,-33.95 -27.69,-61.64 -61.64,-61.64z"/>
    <path class="fil0" d="M4018.71 4135.2l0 54.28c0,33.95 -27.69,61.64 -61.64,61.64l-528.93 0c-33.95,0 -61.64,-27.69 -61.64,-61.64l0 -689.07c0,-33.95 27.69,-61.64 61.64,-61.64l513.84 0c33.95,0 61.64,27.69 61.64,61.64l0 54.28c0,33.95 -27.69,61.64 -61.64,61.64l-286.38 0c-33.95,0 -61.64,27.69 -61.64,61.64l0 13.66c0,33.95 27.69,61.64 61.64,61.64l237.64 0c33.95,0 61.64,27.69 61.64,61.64l0 48.48c0,33.95 -27.69,61.64 -61.64,61.64l-237.64 0c-33.95,0 -61.64,27.69 -61.64,61.64l0 25.27c0,33.95 27.69,61.64 61.64,61.64l301.47 0c33.95,0 61.64,27.69 61.64,61.64z"/>
    <path class="fil0" d="M1041.62 3438.77l51.03 0c49.22,0 89.37,40.15 89.37,89.37l0 479.14c0,33.95 27.69,61.64 61.64,61.64l236.6 0c49.22,0 89.37,40.15 89.37,89.37l0 3.45c0,49.22 -40.15,89.37 -89.37,89.37l-438.64 0c-49.22,0 -89.37,-40.15 -89.37,-89.37l0 -633.61c0,-49.22 40.15,-89.37 89.37,-89.37z"/>
    <path class="fil0" d="M530.32 4093.29l-218.83 0c-38.47,0 -71.29,22.13 -85.71,57.8l-9.29 22.97c-19.23,47.55 -63,77.06 -114.29,77.06l-9.42 0c-32.2,0 -59.88,-15 -77.46,-41.98 -17.58,-26.98 -20.12,-58.36 -7.12,-87.82l268.86 -609.06c20.16,-45.68 62.85,-73.49 112.78,-73.49l65.73 0c49.88,0 92.52,27.75 112.72,73.36l269.74 609.1c13.05,29.46 10.53,60.87 -7.05,87.87 -17.58,27 -45.27,42.03 -77.49,42.03l-13.88 0c-51.29,0 -95.06,-29.51 -114.29,-77.06l-9.29 -22.97c-14.42,-35.66 -47.25,-57.8 -85.71,-57.8zm-21.97 -211.74l-58.85 -146.47c-4.79,-11.92 -15.75,-19.33 -28.6,-19.33 -12.85,0 -23.81,7.41 -28.6,19.33l-58.85 146.47c-3.93,9.79 -2.84,20.01 3.06,28.75 5.91,8.74 14.98,13.56 25.53,13.56l117.7 0c10.55,0 19.63,-4.82 25.53,-13.56 5.91,-8.74 7,-18.96 3.06,-28.75z"/>
    <path class="fil0" d="M2327.81 4135.2l0 54.28c0,33.95 -27.69,61.64 -61.64,61.64l-528.93 0c-33.95,0 -61.64,-27.69 -61.64,-61.64l0 -689.07c0,-33.95 27.69,-61.64 61.64,-61.64l513.84 0c33.95,0 61.64,27.69 61.64,61.64l0 54.28c0,33.95 -27.69,61.64 -61.64,61.64l-286.38 0c-33.95,0 -61.64,27.69 -61.64,61.64l0 13.66c0,33.95 27.69,61.64 61.64,61.64l237.64 0c33.95,0 61.64,27.69 61.64,61.64l0 48.48c0,33.95 -27.69,61.64 -61.64,61.64l-237.64 0c-33.95,0 -61.64,27.69 -61.64,61.64l0 25.27c0,33.95 27.69,61.64 61.64,61.64l301.47 0c33.95,0 61.64,27.69 61.64,61.64z"/>
    <path class="fil0" d="M3252.74 3567.65l-252.89 590.07c-24.82,57.9 -78.64,93.39 -141.64,93.39l-22.94 0c-63.06,0 -116.94,-35.57 -141.71,-93.56l-252.02 -590.01c-12.57,-29.43 -9.77,-60.55 7.87,-87.26 17.63,-26.71 45.15,-41.51 77.16,-41.51l26.13 0c50.83,0 94.24,28.94 113.79,75.86l160.73 385.76c4.87,11.69 15.67,18.92 28.33,18.96 12.67,0.05 23.52,-7.09 28.48,-18.75l164.57 -386.81c19.77,-46.48 62.93,-75.02 113.44,-75.02l5.72 0c32.02,0 59.56,14.82 77.19,41.56 17.63,26.74 20.41,57.88 7.79,87.32z"/>
   </g>
   <g>
    <path class="fil1" d="M2591.81 0c175.21,0 339.15,48.26 479.28,132.16l791.86 457.1c449.39,256.9 606.2,829.92 346.99,1278.77 -87.6,151.7 -211.36,269.5 -354.09,348.87l-784.68 452.93c-140.14,83.94 -304.11,132.21 -479.36,132.21 -405.98,0 -751.42,-258.92 -880.27,-620.58 378.6,-16.34 727.95,-49.18 1038.41,-94.67 96.01,-14.07 176.47,-79.41 176.47,-176.46l0 -245.93c0,-48.66 -30.64,-89.93 -77.22,-104 -109.53,-33.1 -189.3,-134.81 -189.3,-255.15 0,-120.32 79.77,-222.04 189.31,-255.15 46.58,-14.08 77.22,-55.34 77.22,-104l0 -245.9c0,-97.06 -80.71,-192.19 -176.47,-176.46 -343.49,56.33 -689.53,83.94 -1038.09,96.7l-0.12 0.34c128.73,-361.78 473.08,-620.77 880.07,-620.77z"/>
    <path class="fil2" d="M1711.54 2181.46c0,0 0,0 0,0 378.6,-16.34 727.95,-49.18 1038.41,-94.67 16.15,-2.36 31.84,-6.19 46.8,-11.36l0 74.07c0,97.04 -82.72,201.6 -176.44,176.46 -316.98,-85.03 -611.09,-129.67 -908.77,-144.5zm1085.21 -1109.09l0 116.02c0,47.72 -29.34,88.27 -74.67,103.2 -22.52,7.41 -43.99,17.02 -61.87,26.64 -0.21,-4.3 -0.32,-8.63 -0.32,-12.98 0,-100.11 55.22,-187.32 136.86,-232.87z"/>
   </g>
  </g>
 </g>
</svg>
